<?xml version="1.0" encoding="UTF-8" standalone="no"?>
<!-- Created with Inkscape (http://www.inkscape.org/) -->

<svg
   width="400"
   height="100"
   viewBox="0 0 105.83333 26.458333"
   version="1.1"
   id="svg33912"
   inkscape:version="1.2.2 (b0a8486541, 2022-12-01)"
   sodipodi:docname="attributes.svg"
   xmlns:inkscape="http://www.inkscape.org/namespaces/inkscape"
   xmlns:sodipodi="http://sodipodi.sourceforge.net/DTD/sodipodi-0.dtd"
   xmlns="http://www.w3.org/2000/svg"
   xmlns:svg="http://www.w3.org/2000/svg">
  <sodipodi:namedview
     id="namedview33914"
     pagecolor="#ffffff"
     bordercolor="#000000"
     borderopacity="0.25"
     inkscape:showpageshadow="2"
     inkscape:pageopacity="0.0"
     inkscape:pagecheckerboard="0"
     inkscape:deskcolor="#d1d1d1"
     inkscape:document-units="px"
     showgrid="false"
     inkscape:zoom="2.9825758"
     inkscape:cx="153.39091"
     inkscape:cy="65.21209"
     inkscape:window-width="1396"
     inkscape:window-height="752"
     inkscape:window-x="306"
     inkscape:window-y="141"
     inkscape:window-maximized="0"
     inkscape:current-layer="layer1" />
  <defs
     id="defs33909" />
  <g
     inkscape:label="Layer 1"
     inkscape:groupmode="layer"
     id="layer1">
    <g
       id="SVGRepo_iconCarrier"
       transform="matrix(0.05331887,0,0,0.04868847,26.039823,0.75850307)"
       style="fill:none;stroke:#ebede9;stroke-width:31.1574;stroke-dasharray:none">
      <style
         id="style34430">.st0{fill:#000}</style>
      <path
         d="m 221.672,109.882 c 30.346,0 54.945,-24.6 54.945,-54.95 C 276.617,24.591 252.018,0 221.672,0 c -30.337,0 -54.937,24.591 -54.937,54.932 10e-4,30.35 24.6,54.95 54.937,54.95 z m 254.969,355.308 -80.767,-51.634 -65.079,-102.251 -21.42,-120.873 69.702,-6.477 59.974,38.789 c 8.058,5.206 18.695,3.734 25.018,-3.47 l 0.345,-0.4 c 7.022,-7.985 6.277,-20.139 -1.672,-27.198 l -53.678,-47.719 a 33.424,33.424 0 0 0 -20.93,-8.402 l -133.937,-7.467 c -4.124,-0.228 -7.966,0.081 -7.966,0.081 a 64.021,64.021 0 0 0 -5.205,0.646 c -9.756,1.68 -18.513,5.713 -25.794,11.409 L 116.746,199.689 54.71,164.987 c -9.633,-5.387 -21.793,-2.19 -27.52,7.24 l -0.781,1.281 a 20.496,20.496 0 0 0 -2.38,15.579 20.459,20.459 0 0 0 9.389,12.663 l 73.926,44.122 a 35.122,35.122 0 0 0 30.428,2.698 l 62.376,-23.582 20.766,83.737 -87.611,-0.345 a 38.894,38.894 0 0 0 -30.078,14.08 38.876,38.876 0 0 0 -8.208,32.176 l 23.214,119.529 c 2.571,13.235 15.116,22.101 28.456,20.103 l 0.995,-0.154 c 13.199,-1.981 22.56,-13.908 21.338,-27.198 l -7.862,-85.646 121.91,3.852 57.102,57.53 a 116.381,116.381 0 0 0 26.944,20.248 l 84.819,46.33 c 11.882,6.14 26.498,1.744 33.021,-9.938 l 0.472,-0.818 c 6.504,-11.655 2.625,-26.362 -8.785,-33.284 z"
         class="st0"
         id="path34432"
         style="fill:none;stroke:#ebede9;stroke-width:31.1574;stroke-dasharray:none" />
    </g>
    <g
       stroke="#000000"
       stroke-linecap="round"
       stroke-linejoin="round"
       stroke-miterlimit="2"
       stroke-width="7.93824"
       id="g34445"
       transform="matrix(0.61805438,0,0,0.62146573,-1.5303922,-1.6904294)"
       style="fill:none;stroke:#ebede9;stroke-width:2.56149;stroke-dasharray:none">
      <path
         d="m 21.37,36 c 1.45,-5.25 6.52,-9 12.36,-8.38 5.56,0.59 9.98,5.28 10.26,10.86 0.07,1.47 -0.13,2.88 -0.56,4.19 C 43.17,43.47 42.39,44 41.54,44 H 11.758 C 6.71,44 2.924,39.381 3.914,34.431 L 10,4 h 12 l 4,7 -8.57,6.13 L 15,14 M 17.44,17.13 22,34"
         id="path34443"
         style="fill:none;stroke:#ebede9;stroke-width:2.56149;stroke-dasharray:none" />
    </g>
    <path
       d="m 61.468466,12.668251 c -1.483313,0.540015 -2.478389,2.129056 -2.378344,3.829201 0.471285,-0.657323 1.191032,-1.224726 2.062915,-1.597829 z M 56.87755,15.244305 55.565802,5.9679254 c -0.012,-0.08372 0.0116,-0.1354007 0.01,-0.1369607 2.387852,-1.6567373 5.089901,-2.5326462 7.813858,-2.5326462 0.06656,0 0.133521,0.0088 0.200521,0.01 C 64.166887,2.6122386 64.901929,2.1285519 65.722964,1.964739 66.503895,1.8086581 67.295985,1.7296177 68.08684,1.6898175 67.673843,0.96893743 67.074813,0.43770645 66.360026,0.29456165 65.371563,0.09768055 64.378139,0 63.389264,0 60.220066,0 57.093035,1.0035496 54.28929,2.9486405 53.290078,3.6421324 52.754713,5.0890645 52.960177,6.5411646 l 1.311749,9.2763804 c 0.588282,4.160963 5.636015,7.342145 8.452164,7.342145 0.1484,0 0.279041,-0.0236 0.413821,-0.04136 -0.55893,-0.882624 -1.196408,-2.091847 -1.632969,-3.492271 -1.968243,-0.670756 -4.384623,-2.667519 -4.627296,-4.381617 z m 4.032814,-7.1033994 c -0.03,-0.2129212 -0.0922,-0.4066903 -0.168241,-0.5891073 -0.341081,0.4604346 -0.854519,0.8138965 -1.460165,0.9467053 -0.605646,0.1333207 -1.185244,0.0208 -1.632141,-0.2671615 -0.0216,0.2036011 -0.0264,0.4123743 0.0037,0.6252795 0.15876,1.1213743 1.016163,1.8701584 1.915742,1.6727574 0.899167,-0.197401 1.499849,-1.2670991 1.341101,-2.3884694 z M 78.002377,6.247491 C 74.323857,3.6957247 70.088475,2.7640035 65.931641,3.5939241 64.802617,3.8192454 63.902622,4.9509357 63.697573,6.4030359 l -1.311748,9.2763801 c -0.636238,4.498409 3.938965,10.142473 6.54469,10.715048 2.60572,0.573087 8.452988,-2.77966 9.089226,-7.278069 L 79.33149,9.8400151 C 79.53697,8.387399 79.001608,6.9404669 78.002377,6.247491 Z m -11.29601,5.002248 c 0.158761,-1.12137 1.016164,-1.8701585 1.915743,-1.6722374 0.899579,0.1979211 1.499849,1.2670994 1.341516,2.3884694 -0.03,0.212921 -0.0922,0.40669 -0.16828,0.589107 -0.341042,-0.460434 -0.854519,-0.813896 -1.460161,-0.946705 -0.605646,-0.133321 -1.185248,-0.0208 -1.632142,0.267162 -0.022,-0.204122 -0.0268,-0.412895 0.0033,-0.6258 z m 2.913298,10.271146 c -2.301864,-0.505907 -3.866205,-3.062842 -3.680996,-5.834233 0.851623,1.319807 2.323775,2.385885 4.113013,2.779143 1.789238,0.393243 3.4652,0.0192 4.627296,-0.857824 -0.586218,2.684059 -2.757857,4.418824 -5.059313,3.912914 z m 5.38673,-7.820664 c -0.341081,-0.460435 -0.854931,-0.813897 -1.460577,-0.946706 -0.605642,-0.13332 -1.185244,-0.0208 -1.632141,0.267162 -0.0216,-0.203601 -0.0264,-0.412374 0.0037,-0.62528 0.15876,-1.121374 1.016163,-1.870158 1.915742,-1.672757 0.899163,0.197921 1.499849,1.267099 1.341517,2.388469 -0.03,0.213442 -0.0922,0.407211 -0.168241,0.589112 z"
       id="path36286"
       style="fill:#ebede9;stroke:none;stroke-width:0.264583" />
    <path
       d="m 105.83329,11.90388 a 5.2833052,5.3011497 0 0 0 -2.64167,-4.6120001 3.962479,3.9758623 0 0 0 0,-0.6891528 3.962479,3.9758623 0 0 0 -3.96248,-3.9758623 H 98.991516 A 3.962479,3.9758623 0 0 0 92.625131,1.0100175 3.962479,3.9758623 0 0 0 86.258752,2.6268648 h -0.237724 a 3.962479,3.9758623 0 0 0 -3.962479,3.9758623 3.962479,3.9758623 0 0 0 0,0.6891528 5.2833052,5.3011497 0 0 0 -0.726455,8.7336431 5.2833052,5.3011497 0 0 0 4.688934,7.805944 h 0.237724 a 3.962479,3.9758623 0 0 0 6.366379,1.616848 3.962479,3.9758623 0 0 0 6.366385,-1.616848 h 0.237624 a 5.2833052,5.3011497 0 0 0 4.62293,-7.805944 5.2833052,5.3011497 0 0 0 1.98122,-4.121643 z M 91.304207,8.6569268 a 6.2343002,6.2553567 0 0 0 -0.898164,-0.4241087 1.3240584,1.3285304 0 0 0 -0.845327,2.5180449 2.6416527,2.6505749 0 0 1 1.743491,2.478288 v 2.054195 a 6.2343002,6.2553567 0 0 0 -0.898164,-0.424109 1.3240584,1.3285304 0 0 0 -0.845327,2.518045 2.6416527,2.6505749 0 0 1 1.743491,2.478288 v 2.650577 a 1.3208263,1.3252874 0 0 1 -1.320825,1.325285 1.3208263,1.3252874 0 0 1 -1.201953,-0.795172 5.3757629,5.3939197 0 0 0 0.633997,-0.437332 1.3224763,1.326943 0 1 0 -1.690659,-2.040941 2.6416527,2.6505749 0 0 1 -1.703864,0.622884 2.6416527,2.6505749 0 0 1 -2.641654,-2.650577 2.6416527,2.6505749 0 0 1 0.422681,-1.404803 5.0455565,5.062598 0 0 0 0.898158,0.07954 1.3208272,1.3252883 0 0 0 0,-2.650576 2.4303204,2.4385289 0 0 1 -0.911367,-0.172308 2.6416527,2.6505749 0 0 1 -0.409452,-4.7975376 4.0945616,4.1083911 0 0 0 0.607578,0.4638296 1.3253763,1.3298528 0 1 0 1.32083,-2.3060001 1.1887437,1.1927587 0 0 1 -0.449089,-0.4373323 1.2151602,1.2192644 0 0 1 -0.1585,-0.7024066 1.3208263,1.3252874 0 0 1 1.32083,-1.3252858 1.003828,1.0072185 0 0 1 0.277361,0 5.0851813,5.1023566 0 0 0 0.250953,0.6228843 1.3208263,1.3252874 0 0 0 1.809531,0.4903772 1.3208263,1.3252874 0 0 0 0.475498,-1.7758867 1.4000759,1.4048047 0 0 1 -0.171729,-0.6626404 1.3208275,1.3252886 0 0 1 2.641655,0 z m 10.157153,5.7252372 a 2.4303204,2.4385289 0 0 1 -0.91136,0.172308 1.3208274,1.3252885 0 0 0 0,2.650577 5.0455565,5.062598 0 0 0 0.89813,-0.07954 2.6416527,2.6505749 0 0 1 0.42283,1.404803 2.6416527,2.6505749 0 0 1 -2.64162,2.650577 2.6416527,2.6505749 0 0 1 -1.703904,-0.622884 1.3224765,1.3269432 0 0 0 -1.690624,2.040941 5.3757629,5.3939197 0 0 0 0.633996,0.437332 1.3208263,1.3252874 0 0 1 -1.201947,0.795172 1.3208263,1.3252874 0 0 1 -1.32085,-1.325285 V 19.85559 a 2.6416527,2.6505749 0 0 1 1.743481,-2.478288 1.3240591,1.3285312 0 0 0 -0.845322,-2.51805 6.2343002,6.2553567 0 0 0 -0.898159,0.424109 V 13.229166 A 2.6416527,2.6505749 0 0 1 95.689492,10.750878 1.3240584,1.3285304 0 0 0 94.84417,8.2328332 6.2343002,6.2553567 0 0 0 93.946011,8.6569419 V 3.9521707 a 1.3208297,1.3252908 0 0 1 2.641659,0 1.4000759,1.4048047 0 0 1 -0.171728,0.6626404 1.3208263,1.3252874 0 0 0 0.475747,1.8156478 1.3208263,1.3252874 0 0 0 1.809536,-0.4903772 5.0851813,5.1023566 0 0 0 0.251103,-0.6626454 1.003828,1.0072185 0 0 1 0.277561,0 1.3208263,1.3252874 0 0 1 1.320861,1.3252858 1.3208263,1.3252874 0 0 1 -0.22465,0.7289089 1.1887437,1.1927587 0 0 1 -0.435806,0.410835 1.3253753,1.3298518 0 0 0 1.320806,2.306 3.513398,3.5252646 0 0 0 0.66041,-0.4638296 2.6416527,2.6505749 0 0 1 -0.35644,4.7975426 z"
       id="path47280"
       style="stroke-width:0.26458333;stroke:#ebede9;fill:#ebede9;stroke-dasharray:none" />
  </g>
</svg>
